<svg xmlns="http://www.w3.org/2000/svg" viewBox="0 0 500 500"><g id="freepik--background-complete--inject-59"><path d="M385.88,379.15a30.4,30.4,0,0,0-13-4.47c-2.12-.22-4.43-.15-6.14,1.13a1.27,1.27,0,0,0-.63,1.12,1.38,1.38,0,0,0,.6.77,18.56,18.56,0,0,0,19.16,1.45" style="fill:#e0e0e0"></path><path d="M385.54,378.78a63.89,63.89,0,0,1-8.38-7.37,21.29,21.29,0,0,1-5.26-9.73,3.94,3.94,0,0,1,.42-3.25c6.68,5.22,11.93,12,13.22,20.35" style="fill:#e0e0e0"></path><path d="M385.81,379.1a30.17,30.17,0,0,1,.15-11,14.89,14.89,0,0,1,5.87-9.08c1.15,2.7.66,5.81-.16,8.63a41.86,41.86,0,0,1-5.81,12.24" style="fill:#e0e0e0"></path><path d="M392.36,390.84A19.15,19.15,0,0,0,382,396.11a19.73,19.73,0,0,0-6,10.22c3.9-.24,7.21-3,9.62-6.07s4.06-6.47,6.7-9.36" style="fill:#e0e0e0"></path><path d="M393.78,392.72a25.69,25.69,0,0,1,3-24.29c2.26,8.06,1.43,17.16-3,24.29" style="fill:#e0e0e0"></path><path d="M402.44,403a18.57,18.57,0,0,0-17.75,10.22c-.22.44-.42,1-.12,1.39a1.34,1.34,0,0,0,1.17.35c3.5-.23,6.6-2.34,9.16-4.73s4.79-5.17,7.62-7.24" style="fill:#e0e0e0"></path><path d="M402.16,402.47a33.15,33.15,0,0,1-.33-18.47c.66-2.38,1.75-4.89,3.95-6a.76.76,0,0,1,.6-.11.81.81,0,0,1,.38.45,11.11,11.11,0,0,1,.93,5.29,33.68,33.68,0,0,1-.83,5.37c-.69,3.28-1.06,6.8-2.86,9.63a19.54,19.54,0,0,0-1.14,2.11c-.34.72-.35,1-.66,1.55" style="fill:#e0e0e0"></path><path d="M425.08,405.88a23.8,23.8,0,0,1,4.18-19.58c.3-.39.69-.81,1.18-.76.75.07.95,1.06.91,1.82a35.28,35.28,0,0,1-6.27,18.52" style="fill:#e0e0e0"></path><path d="M427.15,407.29a28.45,28.45,0,0,0,23.37-4.75A18.89,18.89,0,0,0,437.87,401c-4.23,1-8.09,2.86-10.72,6.3" style="fill:#e0e0e0"></path><path d="M428.89,403c4.39-7.16,12.82-11.84,21.21-12.26-1,3.41-3.77,6.06-6.93,7.67a38.8,38.8,0,0,1-10.19,3c-1.35.26-3.21.55-4.09,1.61" style="fill:#e0e0e0"></path><path d="M425.52,382.13a61.87,61.87,0,0,0,2.71-12.43,20.73,20.73,0,0,0-2.47-12.29c-4.11,7.95-4.52,17.23-.37,25.14" style="fill:#e0e0e0"></path><path d="M439.34,375.14c4.8-8.72,14.59-15.69,24.5-16.67-3.82,9.52-14.25,16.88-24.5,16.67" style="fill:#e0e0e0"></path><path d="M436.32,376.85c7.16,1.09,13.26,5.66,19.95,8.44a9,9,0,0,0,4.51.86A3.54,3.54,0,0,0,463,379.9a9.7,9.7,0,0,0-3.28-2c-7.29-3-15.1-3.11-22.78-1.27" style="fill:#e0e0e0"></path><path d="M432.18,381.87c1.62.47,2.17,1.31,3.45,2.4A37.35,37.35,0,0,0,450.76,392c.58.14,1.34.2,1.62-.32s-.06-1-.39-1.42a20.78,20.78,0,0,0-9.13-6.2c-3.49-1.3-6.52-2.86-10.68-2.53" style="fill:#e0e0e0"></path><path d="M427.5,351.55A28.62,28.62,0,0,0,449.45,359a1.52,1.52,0,0,0,1-.35c.55-.61-.11-1.53-.76-2-6.45-5-14.27-7.11-22.19-5.07" style="fill:#e0e0e0"></path><path d="M433,349.52A30.6,30.6,0,0,1,460.43,345a21.72,21.72,0,0,1-13.05,5.73A41.31,41.31,0,0,1,433,349.52" style="fill:#e0e0e0"></path><path d="M430.84,335.58c-.63-6.44-.22-11.52-.67-18,0-.52-.15-1.14-.63-1.33-.67-.26-1.23.57-1.46,1.26a20.64,20.64,0,0,0,2.75,17.92" style="fill:#e0e0e0"></path><path d="M430.38,336.29a37.89,37.89,0,0,0,10.67-10.37c2.1-2.88,3.88-6.33,3.4-9.87a10.18,10.18,0,0,0-7.69,3.82,21.52,21.52,0,0,0-3.93,7.89c-.85,2.84-1.45,5.75-2.45,8.53" style="fill:#e0e0e0"></path><path d="M440.86,333.38a86,86,0,0,0,26.26-15.48c-3.14-1.26-6.73-.51-9.87.76a31.13,31.13,0,0,0-16.53,14.65" style="fill:#e0e0e0"></path><path d="M433.32,339.82a53.54,53.54,0,0,0,14.58.07c4.73-.79,9.2-2.66,13.62-4.52a1.61,1.61,0,0,0,.92-.71,1.07,1.07,0,0,0-.33-1.16A2.75,2.75,0,0,0,461,333c-4.8-1.35-10-.72-14.71.87a68.54,68.54,0,0,0-12.92,6" style="fill:#e0e0e0"></path><path d="M405.65,351.77a25.78,25.78,0,0,1-.24-21.35c2,3.07,2.26,7,1.89,10.61s-1.48,7.4-1.55,11.07" style="fill:#e0e0e0"></path><path d="M392.44,345.1a29.8,29.8,0,0,0-22.13,9.43,20.75,20.75,0,0,0,12.12-2.25,61.45,61.45,0,0,0,10.38-6.95" style="fill:#e0e0e0"></path><path d="M383.55,342.13c-4-.32-7.92-.82-11.8.37a14.18,14.18,0,0,0-9,7.63A21.43,21.43,0,0,0,373.82,348a63.59,63.59,0,0,0,9.73-5.91" style="fill:#e0e0e0"></path><path d="M396.7,342.27c-3.63-2.38-7.36-4.81-11.59-5.79s-9.13-.26-12.08,2.93c3.42,2,7.58,2.25,11.55,2.24s8.84,0,12.58,1.28" style="fill:#e0e0e0"></path><path d="M396.73,342.46c-6.22-6.1-8.57-17.06-6.07-25.4a38.74,38.74,0,0,1,6.07,25.4" style="fill:#e0e0e0"></path><path d="M413.81,325.18c1.17-2.73,2-5.58,3-8.36a24.12,24.12,0,0,1,4.35-7.7,11.44,11.44,0,0,1,7.69-4A31,31,0,0,1,414,325.22" style="fill:#e0e0e0"></path><path d="M410.72,328.78c-1.94-2.67-4.18-6.29-6.81-8.28s-6.05-3.2-9.26-2.44a21.56,21.56,0,0,0,16.07,10.72" style="fill:#e0e0e0"></path><path d="M411.34,325.4a45.38,45.38,0,0,1-3.07-9.92,15.56,15.56,0,0,1,1.55-10.1c3.41,6.45,4.51,13.37,1.69,20.09" style="fill:#e0e0e0"></path><path d="M413.84,305.38c1.93-6.39,7.78-11.09,14.1-13.25a5.27,5.27,0,0,1,2.47-.37,2.15,2.15,0,0,1,1.82,1.52c.23,1.09-.66,2.06-1.51,2.78a47.91,47.91,0,0,1-16.88,9.32" style="fill:#e0e0e0"></path><path d="M413.91,300.16c.24-4.12.5-8.3,1.84-12.21s3.92-7.56,7.68-9.27c.64,4.16-1.19,8.3-3.41,11.88s-4.88,7-6.21,11" style="fill:#e0e0e0"></path><path d="M413.81,303c-1.6-4.65-1.76-10.57-4.55-14.63-1.95-2.83-5.07-4.76-6.75-7.77a11.81,11.81,0,0,0,.39,8.83,25.66,25.66,0,0,0,5.16,7.38c2.06,2.2,3.83,3.86,5.75,6.19" style="fill:#e0e0e0"></path><path d="M413.84,440.14c-.12,0-.23-31.07-.24-69.38s.08-69.39.21-69.39.23,31.06.24,69.39S414,440.14,413.84,440.14Z" style="fill:#e0e0e0"></path><path d="M441,347.08a7.2,7.2,0,0,1-1.17.44l-3.21,1.08c-2.72.93-6.44,2.26-10.48,3.92s-7.77,3.11-9.92,5a7.28,7.28,0,0,0-2,2.64c-.31.73-.36,1.17-.4,1.17s0-.12,0-.33a5.43,5.43,0,0,1,.23-.91,7,7,0,0,1,1.95-2.81,17.42,17.42,0,0,1,4.3-2.67c1.72-.81,3.63-1.64,5.66-2.48,4.05-1.66,7.81-3,10.55-3.8,1.37-.43,2.48-.74,3.26-.95A6.89,6.89,0,0,1,441,347.08Z" style="fill:#e0e0e0"></path><path d="M449.89,325.22a2.54,2.54,0,0,1-.33.35l-1,.94-3.72,3.38-12.39,11c-4.83,4.3-9,8.41-11.91,11.51-1.45,1.55-2.59,2.83-3.37,3.72l-.9,1a2.4,2.4,0,0,1-.33.34,2.06,2.06,0,0,1,.26-.4c.19-.25.47-.62.84-1.08.74-.93,1.85-2.25,3.27-3.83a156.51,156.51,0,0,1,11.84-11.63c4.86-4.29,9.27-8.15,12.48-10.93l3.82-3.27,1.05-.88A2.11,2.11,0,0,1,449.89,325.22Z" style="fill:#e0e0e0"></path><path d="M427.23,345.29c-.12-.05.89-2.39,1.89-5.34s1.5-5.43,1.63-5.41a18.5,18.5,0,0,1-1.2,5.56,39.6,39.6,0,0,1-1.5,3.73A5.36,5.36,0,0,1,427.23,345.29Z" style="fill:#e0e0e0"></path><path d="M413.87,364.1a5.74,5.74,0,0,1-.75-.87l-1.91-2.45c-1.6-2.07-3.82-4.93-6.3-8.06s-4.77-5.94-6.42-8l-1.95-2.42a5.72,5.72,0,0,1-.68-.92,5.33,5.33,0,0,1,.81.81c.5.54,1.2,1.33,2.06,2.32,1.72,2,4,4.77,6.53,7.9s4.67,6,6.21,8.15c.77,1.06,1.38,1.93,1.79,2.54A5.34,5.34,0,0,1,413.87,364.1Z" style="fill:#e0e0e0"></path><path d="M407.92,356.45a10.75,10.75,0,0,1-2.5-4.66,13.31,13.31,0,0,1-.56-4.71h.19c-.08.36-.15.55-.18.55s0-.21,0-.58l.2,0a21.59,21.59,0,0,0,.79,4.58A34.82,34.82,0,0,0,407.92,356.45Z" style="fill:#e0e0e0"></path><path d="M400.23,346.79a8.1,8.1,0,0,0-1.74-1,11.68,11.68,0,0,0-4.83-.39,29.79,29.79,0,0,0-4.87.79,15.84,15.84,0,0,1-2,.48,6.85,6.85,0,0,1,1.92-.79,22.82,22.82,0,0,1,4.92-.93,10.74,10.74,0,0,1,5,.54A3.07,3.07,0,0,1,400.23,346.79Z" style="fill:#e0e0e0"></path><path d="M398.41,344.44c0,.07-1-.4-2.67-1a26.75,26.75,0,0,0-13.44-1c-1.72.31-2.76.63-2.78.55a2.65,2.65,0,0,1,.7-.3,16.41,16.41,0,0,1,2-.56,23.32,23.32,0,0,1,6.88-.48,23.85,23.85,0,0,1,6.73,1.51,19.07,19.07,0,0,1,1.91.87A2.92,2.92,0,0,1,398.41,344.44Z" style="fill:#e0e0e0"></path><path d="M413.81,334.54a56.3,56.3,0,0,1-1.95-6.76,56.06,56.06,0,0,1-1.51-6.87,109.12,109.12,0,0,1,3.46,13.63Z" style="fill:#e0e0e0"></path><path d="M413.93,334.54a31.6,31.6,0,0,0-2.15-4.05,17.44,17.44,0,0,0-3.18-3.27,2.78,2.78,0,0,1,1.23.63,9.74,9.74,0,0,1,2.31,2.38A9,9,0,0,1,413.93,334.54Z" style="fill:#e0e0e0"></path><path d="M413.84,423.58s-.14-.75-.49-2.07a29.69,29.69,0,0,0-2.08-5.38,74.42,74.42,0,0,0-11-15.52c-2.46-2.81-4.85-5.46-6.87-8a55.36,55.36,0,0,1-4.91-7.09,33.22,33.22,0,0,1-2.48-5.26c-.23-.64-.4-1.15-.49-1.5a2.9,2.9,0,0,1-.13-.54s.27.71.78,2a37.75,37.75,0,0,0,2.59,5.16,60,60,0,0,0,5,7c2,2.51,4.42,5.14,6.89,8a70.55,70.55,0,0,1,11,15.67,27.31,27.31,0,0,1,2,5.48,14.7,14.7,0,0,1,.27,1.56A2.79,2.79,0,0,1,413.84,423.58Z" style="fill:#e0e0e0"></path><path d="M438.37,395.87a10.89,10.89,0,0,1-1.28.72,28,28,0,0,0-3.34,2.2,38.86,38.86,0,0,0-4.38,4c-1.54,1.62-3.12,3.51-4.74,5.53-3.23,4.05-6.25,7.64-8.06,10.5-.92,1.42-1.59,2.62-2,3.46a11.88,11.88,0,0,1-.71,1.3,1.46,1.46,0,0,1,.12-.37c.09-.23.22-.58.43-1a34,34,0,0,1,1.91-3.55,116.52,116.52,0,0,1,8-10.61c1.62-2,3.23-3.92,4.79-5.54a35.11,35.11,0,0,1,4.49-4,23.6,23.6,0,0,1,3.44-2.11c.43-.21.78-.34,1-.44S438.37,395.85,438.37,395.87Z" style="fill:#e0e0e0"></path><path d="M438.85,404.86a19.57,19.57,0,0,1-2.72.39,36.48,36.48,0,0,0-6.44,1.27,19.38,19.38,0,0,0-5.77,3c-1.33,1-2,1.88-2,1.83a2.12,2.12,0,0,1,.4-.63,10.28,10.28,0,0,1,1.42-1.45,17.6,17.6,0,0,1,5.83-3.21,29.35,29.35,0,0,1,6.55-1.16A14.51,14.51,0,0,1,438.85,404.86Z" style="fill:#e0e0e0"></path><path d="M422.69,410.39c-.14-.08,1.09-1.95,2-4.47s1.1-4.76,1.26-4.74a4.75,4.75,0,0,1-.05,1.46,16,16,0,0,1-.79,3.44,17,17,0,0,1-1.58,3.15A4.39,4.39,0,0,1,422.69,410.39Z" style="fill:#e0e0e0"></path><path d="M446.32,371.73a2,2,0,0,1-.44.24l-1.28.58c-.55.24-1.23.54-2,.94s-1.66.81-2.6,1.37l-1.48.84c-.51.3-1,.65-1.56,1-1.09.66-2.19,1.48-3.36,2.31a62.92,62.92,0,0,0-7,6.16,61.71,61.71,0,0,0-5.92,7.22c-.8,1.19-1.58,2.31-2.2,3.43-.32.55-.66,1.07-.93,1.6s-.54,1-.79,1.51c-.53.95-.91,1.86-1.28,2.64s-.66,1.46-.88,2l-.53,1.3a2.29,2.29,0,0,1-.22.44,2.32,2.32,0,0,1,.13-.47l.46-1.33c.2-.58.45-1.28.81-2.07s.71-1.72,1.22-2.69l.77-1.53c.27-.53.6-1.06.92-1.62.61-1.13,1.39-2.27,2.18-3.48a58.8,58.8,0,0,1,5.93-7.29,60.89,60.89,0,0,1,7.09-6.18c1.18-.83,2.29-1.64,3.4-2.3.55-.33,1.06-.68,1.59-1l1.5-.82c.95-.55,1.86-.94,2.64-1.31a19.05,19.05,0,0,1,2.05-.88l1.31-.51A2.41,2.41,0,0,1,446.32,371.73Z" style="fill:#e0e0e0"></path><path d="M426.9,384.74a3.18,3.18,0,0,1,1.07-1.59,6.74,6.74,0,0,1,4.3-1.65,11.71,11.71,0,0,1,4.53.89,6.69,6.69,0,0,1,1.71.83,11.6,11.6,0,0,1-1.82-.53,13.51,13.51,0,0,0-4.41-.74,7,7,0,0,0-4.1,1.44A14.07,14.07,0,0,0,426.9,384.74Z" style="fill:#e0e0e0"></path><path d="M424,387.74a16.21,16.21,0,0,0,1.22-4,16.4,16.4,0,0,0-.27-4.15,2.71,2.71,0,0,1,.5,1.16,8.33,8.33,0,0,1,.22,3,8.17,8.17,0,0,1-.91,2.92C424.38,387.41,424,387.77,424,387.74Z" style="fill:#e0e0e0"></path><path d="M392.38,428c.67,11.87,4.25,23.94,9.75,36.15h23.93c5.25-12.09,8.58-24.14,9.17-36.15Z" style="fill:#e0e0e0"></path><path d="M431.36,447.24c0,.12-7.88.22-17.6.22s-17.6-.1-17.6-.22,7.88-.23,17.6-.23S431.36,447.11,431.36,447.24Z" style="fill:#fafafa"></path><path d="M430.82,451.54c0,.12-7.39.22-16.5.22s-16.49-.1-16.49-.22,7.38-.22,16.49-.22S430.82,451.42,430.82,451.54Z" style="fill:#fafafa"></path><path d="M402.52,435.82a69.24,69.24,0,0,1,0,11,66.24,66.24,0,0,1,0-11Z" style="fill:#fafafa"></path><path d="M415.34,435.82a71,71,0,0,1,0,11.42,74.21,74.21,0,0,1,0-11.42Z" style="fill:#fafafa"></path><path d="M427.38,435.73a77.09,77.09,0,0,1,0,11.64,73.75,73.75,0,0,1,0-11.64Z" style="fill:#fafafa"></path><path d="M434.47,435.82c0,.13-9.24.23-20.63.23s-20.64-.1-20.64-.23,9.24-.22,20.64-.22S434.47,435.7,434.47,435.82Z" style="fill:#fafafa"></path><rect x="55.4" y="329.45" width="19.69" height="118.16" style="fill:#e0e0e0"></rect><rect x="87.05" y="329.45" width="19.69" height="118.16" style="fill:#e0e0e0"></rect><rect x="118.69" y="329.45" width="19.69" height="118.16" style="fill:#e0e0e0"></rect><rect x="150.34" y="329.45" width="19.69" height="118.16" style="fill:#e0e0e0"></rect><rect x="181.99" y="329.45" width="19.69" height="118.16" style="fill:#e0e0e0"></rect><rect x="213.64" y="329.45" width="19.69" height="118.16" style="fill:#e0e0e0"></rect><rect x="245.29" y="329.45" width="19.69" height="118.16" style="fill:#e0e0e0"></rect><rect x="43.44" y="342.82" width="218.73" height="6.33" rx="1.42" style="fill:#e0e0e0"></rect><rect x="43.44" y="433.39" width="218.73" height="6.33" rx="1.42" style="fill:#e0e0e0"></rect><rect x="345.35" y="40.59" width="109.76" height="181.68" style="fill:#e0e0e0"></rect><rect x="341.7" y="40.59" width="109.76" height="181.68" style="fill:#ebebeb"></rect><rect x="346.38" y="44.28" width="100.41" height="174.32" style="fill:#fafafa"></rect><rect x="365.49" y="66.93" width="61.75" height="129.01" style="fill:#ebebeb"></rect><path d="M365.49,150.29c-.14-12,10.7-23.82,22.63-25.5,5.69-.8,11.74.33,17.06-1.86,9.49-3.89,12.51-16.5,22.06-20.24l.44,93.25H365.49Z" style="fill:#e0e0e0"></path></g><g id="freepik--Floor--inject-59"><path d="M451,465.38c0,.14-90.46.26-202,.26s-202-.12-202-.26,90.44-.26,202-.26S451,465.24,451,465.38Z" style="fill:#263238"></path></g><g id="freepik--Contract--inject-59"><path d="M255,73.75l48.11-2A15.61,15.61,0,0,1,319.37,87l1.7,74.31a15.61,15.61,0,0,1-14,15.88h0a5.18,5.18,0,0,0-4.64,5.35l6.05,157a19.48,19.48,0,0,1-18.6,20.2l-183.8,8.16a5.18,5.18,0,0,1-5.41-5L92.56,90.32A5.18,5.18,0,0,1,97.37,85Z" style="fill:#A2D8D6"></path><g style="opacity:0.30000000000000004"><path d="M100.53,357.64l.16,5.15L298.55,344.6,294.77,72.07s-48,7.28-48.9,7.28S100.53,357.64,100.53,357.64Z"></path></g><polygon points="229.95 59.12 287.37 55.62 293.3 338.09 91.2 358.59 61.44 77.6 229.95 59.12" style="fill:#ebebeb"></polygon><path d="M230,59.12s-1,.13-3,.35l-8.74,1-33.57,3.73L61.46,77.79l.17-.21c8,75.28,18.37,173.08,29.83,281l-.29-.23,45.3-4.59,156.81-15.89-.23.25c-2.53-123.51-4.61-224.81-5.8-282.48l.13.12-42.73,2.55-11,.63-3.72.2s1.25-.1,3.71-.26l11-.7,42.73-2.66h.12v.12c1.24,57.68,3.41,159,6.06,282.48v.22l-.22,0-156.8,15.91-45.3,4.6-.26,0,0-.25c-11.4-107.91-21.74-205.71-29.7-281l0-.2.19,0L184.65,64l33.58-3.63,8.74-.93C228.94,59.21,230,59.12,230,59.12Z" style="fill:#263238"></path><polygon points="51.39 68.22 78.75 352.5 290.42 332.56 259.89 48.49 51.39 68.22" style="fill:#fff"></polygon><path d="M51.39,68.21,259.87,48.28l.21,0,0,.21c8.59,79.74,19.16,178,30.58,284.07l0,.26-.26,0-1.5.14L78.77,352.74l-.23,0,0-.24C62.46,184.2,51.59,70.29,51.39,68.21c.2,2.08,11.26,116,27.6,284.27l-.26-.21,210.16-19.82,1.5-.15-.23.29c-11.39-106.1-21.92-204.33-30.48-284.08l.23.19Z" style="fill:#263238"></path><path d="M213.72,283.82a31.2,31.2,0,1,1,31.13,31.28A31.23,31.23,0,0,1,213.72,283.82Zm61.82.15a30.63,30.63,0,1,0-30.69,30.55A30.66,30.66,0,0,0,275.54,284Z" style="fill:#e0e0e0"></path><path d="M217.28,283.83a27.21,27.21,0,1,1,27.14,27.28A27.23,27.23,0,0,1,217.28,283.83Zm50.4.12a23.2,23.2,0,1,0-23.25,23.14A23.22,23.22,0,0,0,267.68,284Z" style="fill:#e0e0e0"></path><path d="M224,284.23a20,20,0,0,1,2.16-9l3.58,1.81a15.83,15.83,0,0,0-1.72,7.22A16.13,16.13,0,0,0,252.5,298l2.1,3.42A20.14,20.14,0,0,1,224,284.23Z" style="fill:#e0e0e0"></path><path d="M234.81,266.42A20.13,20.13,0,0,1,261.14,295l-3.39-2.14A16.12,16.12,0,0,0,236.67,270Z" style="fill:#e0e0e0"></path><path d="M113.18,95.35a5.6,5.6,0,0,1,5.34-6.2,5.76,5.76,0,0,1,4.84,1.55l-1.76,2a3.23,3.23,0,0,0-2.66-1,3.09,3.09,0,0,0,.62,6.15A3.22,3.22,0,0,0,122,96.28l2.11,1.55a5.68,5.68,0,0,1-4.41,2.5A5.59,5.59,0,0,1,113.18,95.35Z" style="fill:#263238"></path><path d="M124.29,94.21c-.33-3.22,2-5.85,5.4-6.2s6.22,1.75,6.55,5-2,5.85-5.4,6.2S124.62,97.44,124.29,94.21Zm8.88-.91a2.92,2.92,0,1,0-2.59,3.37A2.89,2.89,0,0,0,133.17,93.3Z" style="fill:#263238"></path><path d="M147.52,86.4l1.1,10.76-2.5.25-5.34-5.24.59,5.73-3,.3-1.1-10.75,2.5-.26,5.34,5.25-.59-5.73Z" style="fill:#263238"></path><path d="M152.21,88.36l-3.3.34-.25-2.41,9.63-1,.25,2.41-3.29.34.85,8.34-3,.31Z" style="fill:#263238"></path><path d="M164.94,92.6l-1.66.17.29,2.86-3,.31-1.1-10.76,4.91-.5c2.94-.3,4.94,1,5.19,3.49a3.59,3.59,0,0,1-1.76,3.61l2.67,3.15-3.26.33Zm-.54-5.5-1.69.17.33,3.15,1.69-.17c1.26-.13,1.83-.78,1.73-1.76S165.66,87,164.4,87.1Z" style="fill:#263238"></path><path d="M178.89,92l-4.55.46-.63,2.18-3.1.32,3.64-11.24,3-.31,5.86,10.27L180,94Zm-1.12-2.15L176,86.5l-1,3.58Z" style="fill:#263238"></path><path d="M182.71,88.24c-.33-3.28,1.94-5.85,5.35-6.2a5.75,5.75,0,0,1,4.83,1.55l-1.76,2a3.22,3.22,0,0,0-2.66-1,3.09,3.09,0,0,0,.63,6.15,3.2,3.2,0,0,0,2.4-1.52l2.12,1.55a5.72,5.72,0,0,1-4.42,2.5A5.59,5.59,0,0,1,182.71,88.24Z" style="fill:#263238"></path><path d="M196.5,83.83l-3.3.34L193,81.76l9.63-1,.25,2.41-3.29.34.85,8.34-3,.31Z" style="fill:#263238"></path><path d="M254.88,121.62c0,.15-39.93,4-89.2,8.69s-89.25,8.31-89.26,8.16,39.92-4,89.21-8.68S254.87,121.48,254.88,121.62Z" style="fill:#263238"></path><path d="M158,119.39c0,.14-18.42,2-41.17,4.15s-41.2,3.77-41.21,3.63,18.41-2,41.17-4.15S158,119.25,158,119.39Z" style="fill:#263238"></path><path d="M255.66,133.21c0,.14-39.93,4-89.21,8.68s-89.24,8.31-89.26,8.17,39.92-4,89.22-8.69S255.64,133.06,255.66,133.21Z" style="fill:#263238"></path><path d="M256.44,144.79c0,.14-39.93,4-89.21,8.68S78,161.78,78,161.64s39.92-4,89.21-8.68S256.42,144.65,256.44,144.79Z" style="fill:#263238"></path><path d="M257.21,156.37c0,.15-39.93,4-89.2,8.69s-89.25,8.31-89.26,8.16,39.92-4,89.21-8.68S257.2,156.23,257.21,156.37Z" style="fill:#263238"></path><path d="M258,168c0,.14-39.93,4-89.2,8.68S79.54,185,79.53,184.81s39.92-4,89.21-8.69S258,167.81,258,168Z" style="fill:#263238"></path><path d="M258.77,179.54c0,.14-39.93,4-89.2,8.68s-89.25,8.31-89.26,8.17,39.92-4,89.21-8.68S258.76,179.4,258.77,179.54Z" style="fill:#263238"></path><path d="M259.55,191.12c0,.15-39.41,4-88,8.58s-88.08,8.2-88.1,8.05,39.4-4,88.05-8.57S259.53,191,259.55,191.12Z" style="fill:#263238"></path><path d="M190.78,213.4c0,.15-23.78,2.41-53.15,5S84.45,223.12,84.44,223s23.78-2.4,53.15-5S190.77,213.26,190.78,213.4Z" style="fill:#263238"></path><path d="M161.88,309.14c0,.15-14.47,1.49-32.34,3s-32.38,2.63-32.39,2.49,14.47-1.49,32.35-3S161.87,309,161.88,309.14Z"></path><path d="M134.07,320.2c0,.15-8.12.95-18.15,1.8s-18.18,1.43-18.19,1.29,8.11-1,18.15-1.8S134.05,320.06,134.07,320.2Z"></path><path d="M131.84,238.68c0,.14-9.55,1.2-21.35,2.37s-21.39,2-21.41,1.84,9.55-1.2,21.36-2.36S131.82,238.54,131.84,238.68Z" style="fill:#A2D8D6"></path><g style="opacity:0.30000000000000004"><polygon points="74.39 304.4 93.82 300.64 104.69 284.26 73.72 294.43 74.39 304.4"></polygon></g><polygon points="40.31 283.47 92.19 278.55 104.69 284.26 94.72 295.48 42.02 301.16 40.31 283.47" style="fill:#A2D8D6"></polygon><path d="M63.61,286.73l.66,6.65-1.54.16-.27-2.73-3,.3.27,2.73-1.54.15-.67-6.65,1.54-.15.27,2.62,3-.3-.26-2.63Z" style="fill:#fff"></path><path d="M70.51,290.6l-3.87.38a1.37,1.37,0,0,0,1.57.88,1.7,1.7,0,0,0,1.23-.62l.88.78a2.72,2.72,0,0,1-2,1,2.67,2.67,0,0,1-3.18-2.34,2.61,2.61,0,0,1,2.46-2.91,2.54,2.54,0,0,1,2.93,2.38C70.51,290.31,70.51,290.47,70.51,290.6Zm-4-.48,2.52-.25a1.28,1.28,0,0,0-2.52.25Z" style="fill:#fff"></path><path d="M74.4,287.12l.14,1.37-.34,0A1.25,1.25,0,0,0,73,290.07l.24,2.41-1.48.15-.52-5.11,1.42-.14.07.67A2.07,2.07,0,0,1,74.4,287.12Z" style="fill:#fff"></path><path d="M80.52,289.59l-3.87.39a1.38,1.38,0,0,0,1.57.88,1.73,1.73,0,0,0,1.23-.62l.88.77a2.69,2.69,0,0,1-2,1,2.66,2.66,0,0,1-3.18-2.34,2.62,2.62,0,0,1,2.46-2.91,2.55,2.55,0,0,1,2.93,2.39C80.52,289.3,80.52,289.47,80.52,289.59Zm-4-.47,2.52-.26a1.22,1.22,0,0,0-1.36-.93A1.21,1.21,0,0,0,76.55,289.12Z" style="fill:#fff"></path><path d="M197.62,237.4a.94.94,0,0,1,.18.06,2.65,2.65,0,0,1,.51.24,6.94,6.94,0,0,1,1.67,1.41,23.9,23.9,0,0,1,4.2,7.25,30.39,30.39,0,0,1,2.18,13.05,19.61,19.61,0,0,1-.71,4,26.1,26.1,0,0,1-1.59,4,26.83,26.83,0,0,1-5.54,7.48,27.63,27.63,0,0,1-8.57,5.61A23.42,23.42,0,0,1,179,282.19a24,24,0,0,1-19.22-13.72,19.44,19.44,0,0,1-1.74-6.36,14.73,14.73,0,0,1,.7-6.7,10.77,10.77,0,0,1,4-5.6,7.66,7.66,0,0,1,3.33-1.24,8,8,0,0,1,3.56.41,10.51,10.51,0,0,1,5.48,4.55,16.9,16.9,0,0,1,2.18,6.94A30.29,30.29,0,0,1,175.14,275a28.59,28.59,0,0,1-8.79,11.78,26.39,26.39,0,0,1-13.24,5.32,24.81,24.81,0,0,1-13.58-2.21,23.2,23.2,0,0,1-9.67-9,22.48,22.48,0,0,1-3.26-12.12,16.27,16.27,0,0,1,1.16-6,11.92,11.92,0,0,1,3.42-4.8,7.05,7.05,0,0,1,5.42-1.6,8.06,8.06,0,0,1,4.78,2.66,10.08,10.08,0,0,1,2.4,4.69,13.2,13.2,0,0,1,0,5,26.31,26.31,0,0,1-3.56,8.6,41,41,0,0,1-5,6.64,42.5,42.5,0,0,1-10.38,8.27,38.77,38.77,0,0,1-7.68,3.39c-1.83.58-2.82.78-2.82.78l.71-.22c.47-.16,1.18-.32,2.08-.66a40.23,40.23,0,0,0,7.61-3.47A42.33,42.33,0,0,0,135,283.89a41.86,41.86,0,0,0,4.92-6.62,25.55,25.55,0,0,0,3.48-8.5,12.82,12.82,0,0,0,0-4.9,9.82,9.82,0,0,0-2.32-4.5,7.76,7.76,0,0,0-4.54-2.52,6.66,6.66,0,0,0-5.1,1.53,11.36,11.36,0,0,0-3.28,4.63,16.19,16.19,0,0,0-1.12,5.81,22.09,22.09,0,0,0,3.23,11.87,22.64,22.64,0,0,0,9.47,8.77,24.3,24.3,0,0,0,13.31,2.16,25.9,25.9,0,0,0,13-5.23,28.14,28.14,0,0,0,8.63-11.57,29.64,29.64,0,0,0,2.1-14.3,16.29,16.29,0,0,0-2.1-6.72,9.92,9.92,0,0,0-5.21-4.33,7.43,7.43,0,0,0-3.33-.4,7.34,7.34,0,0,0-3.11,1.16,10.27,10.27,0,0,0-3.8,5.34,14.52,14.52,0,0,0-.69,6.49,19.4,19.4,0,0,0,1.69,6.21A23.59,23.59,0,0,0,179,281.76a23,23,0,0,0,10.75-1.66,27.36,27.36,0,0,0,8.47-5.5,26.41,26.41,0,0,0,5.5-7.37,25.48,25.48,0,0,0,1.59-3.93,19.56,19.56,0,0,0,.72-3.91,30.35,30.35,0,0,0-2.08-13,24.33,24.33,0,0,0-4.09-7.25,7.75,7.75,0,0,0-1.62-1.44A6.67,6.67,0,0,0,197.62,237.4Z"></path><path d="M213.6,97.51s0-.17-.07-.49-.09-.81-.16-1.42c-.14-1.27-.35-3.11-.62-5.5-.52-4.8-1.28-11.79-2.24-20.63l.18.14L102.7,81h0l.23-.29c1,9.63,2,19,2.93,28.06l-.28-.23,77.06-7.93,22.7-2.3,6.12-.61,1.6-.15.55,0-.52.07-1.56.18-6.05.67-22.63,2.43-77.22,8.19-.25,0,0-.25c-.94-9-1.93-18.43-2.93-28l0-.26.26,0h0l108-11.18h.16l0,.15c.89,8.89,1.59,15.92,2.07,20.74.24,2.38.41,4.21.54,5.47.05.6.1,1.07.13,1.4Z" style="fill:#455a64"></path></g><g id="freepik--Character--inject-59"><path d="M334.56,145.79a2.66,2.66,0,0,1,.94-1.51,6.48,6.48,0,0,1,4-1A16.78,16.78,0,0,0,341.1,138a3.3,3.3,0,0,1-1.87-.53c-.1,0-.21-.05-.31-.09-1.33-.62-1.46-2.61-.62-3.81a7.55,7.55,0,0,1,3.65-2.35,12.51,12.51,0,0,0-2.83,1c-1,.3-2.32,0-2.43-1a2.33,2.33,0,0,1,.15-.9l.57-1.77a2,2,0,0,1,.78-1.24,4.35,4.35,0,0,1,1-.25c1.13-.3,1.71-1.67,2.83-2a5.18,5.18,0,0,1,2.52.37c.83.2,1.94,0,2.2-.78a8.12,8.12,0,0,1-2.86-2.42,2.73,2.73,0,0,1,.27-3.46,4,4,0,0,1,2.82-.58c1.1,0,2.47.3,2.76,1.36a2.86,2.86,0,0,1,3.51,2.24l2.84-.28c-.79-.85-1.92-1.37-2.6-2.31s-.56-2.63.58-2.88c.41-.09.87.05,1.26-.11s.52-.37.83-.38a1.11,1.11,0,0,1,.61.24l6,3.9c-.54-1.25-1.07-2.5-1.61-3.76s-.89-2.75.15-3.46,2.46.3,2.67,1.5a2,2,0,0,1,2.37,1.79,2,2,0,0,1,2.31,3,5.62,5.62,0,0,1,2.85.85,1.72,1.72,0,0,1,2.77-1.18,3,3,0,0,1,.44-1.7,1,1,0,0,1,1.55-.18,2,2,0,0,1,3.24-2l1-1.19A2.61,2.61,0,0,1,383,115c.42.92-.28,2.25-1.29,2.16.71,0,.55,1.12.14,1.7l-1.73,2.4a2.22,2.22,0,0,1,2.74-.24,1.72,1.72,0,0,1,2.48,0,1.39,1.39,0,0,1,2.5.42c.17-.46.81-.49,1.3-.44a3.25,3.25,0,0,1,2,.68c.51.5.5,1.54-.16,1.79.6-.34,1.38.32,1.39,1a2.49,2.49,0,0,1-1,1.76,5.66,5.66,0,0,0-1.43,1.5,2.87,2.87,0,0,1,2-.42,7.51,7.51,0,0,1,3.62.72c.22-.49.9-.51,1.42-.41a8.6,8.6,0,0,1,4.32,2.35c.55.56,1,1.4.67,2.09a2.09,2.09,0,0,1-.8.7l-3.84,2.38a10.44,10.44,0,0,1,5.25,3.72c.77.45,1.75.5,2.44,1.05s.64,2-.24,2a1.64,1.64,0,0,1,.47,1.89,1.73,1.73,0,0,1-.6.66,2.36,2.36,0,0,1-.42.47,3,3,0,0,1-1,.54,2,2,0,0,1-1.72.8,8,8,0,0,1,1.82,2.16,3.4,3.4,0,0,1,0,3.52,1,1,0,0,1-.14.15,1.7,1.7,0,0,1-.73,1.07,1.49,1.49,0,0,1,.14.93,3.75,3.75,0,0,1,.84,6.57c-.89.63-2.52.51-2.61-.57a2.9,2.9,0,0,1-2.21,1.62,2.82,2.82,0,0,1-1.48,3.89,3,3,0,0,1-.95,4.93,2.31,2.31,0,1,1-4.36,1.51,4.86,4.86,0,0,1-1.72,2.16,1.69,1.69,0,0,1-2.39-.62,3.17,3.17,0,0,1-4.66,1.51,2,2,0,0,1-4.07.36l-5.29-.05a19.44,19.44,0,0,1-3.5-.26,9.42,9.42,0,0,1-4-1.86,2.23,2.23,0,0,0-2.84-.5,8.56,8.56,0,0,1-8.14-1.92,4.18,4.18,0,0,0-1.07-.85,3.72,3.72,0,0,0-1.56-.22,15.63,15.63,0,0,1-3.85-.55,4.08,4.08,0,0,1-2.71-1.79c-.51-1,.09-2.52,1.2-2.5a2.38,2.38,0,0,0-.59-2,1.43,1.43,0,0,0-2-.08,1,1,0,0,0,.47,1.68c-1.19.83-3.05-.33-3.08-1.78a2.85,2.85,0,0,1,2.86-2.67,6.66,6.66,0,0,1-.08-3.2,2.35,2.35,0,0,1-3.2.36,4.07,4.07,0,0,1-2.63,1.89,2.43,2.43,0,0,1-2.68-1.47,1.75,1.75,0,0,1,1.66-2.25,2.09,2.09,0,0,1,1.86-3,3.27,3.27,0,0,1,2-3.46,1.7,1.7,0,0,1-2.43-.94c-.67,1.06-2.32.8-3.4.17A2.29,2.29,0,0,1,334.56,145.79Z" style="fill:#263238"></path><path d="M334.56,145.79a1.57,1.57,0,0,0-.06.43,1.87,1.87,0,0,0,.41,1.22,4,4,0,0,0,1.76,1.21,3.32,3.32,0,0,0,1.37.23,1.7,1.7,0,0,0,1.39-.73l-.11,0a1.78,1.78,0,0,0,2.53,1l-.06-.14a3.34,3.34,0,0,0-2.05,3.54l.1-.1a2,2,0,0,0-1.82,1,2.06,2.06,0,0,0-.14,2.19l.1-.15a1.76,1.76,0,0,0-1.77,1.33,1.93,1.93,0,0,0,.89,2.19,2.77,2.77,0,0,0,2.55.24,4.48,4.48,0,0,0,2.07-1.76l-.18,0a2.49,2.49,0,0,0,3.39-.38l-.24-.11a6.87,6.87,0,0,0,.08,3.27l.13-.18a3.24,3.24,0,0,0-2,.73,2.69,2.69,0,0,0-1,1.91,2.24,2.24,0,0,0,1,2,2,2,0,0,0,2.27.12l.34-.23-.41-.05c-.4,0-.66-.55-.59-1a.92.92,0,0,1,1-.73,1.41,1.41,0,0,1,1.2.73A2.49,2.49,0,0,1,347,165l.16-.14a1.33,1.33,0,0,0-1.05.49,2,2,0,0,0-.47,1,2.07,2.07,0,0,0,.14,1.15,2.77,2.77,0,0,0,.71.91,5.53,5.53,0,0,0,2,1,15.21,15.21,0,0,0,2.23.46c1.49.32,3.22-.29,4.2,1.09a8.52,8.52,0,0,0,4.27,2.2,8.94,8.94,0,0,0,2.48.15,12.8,12.8,0,0,0,2.43-.53,1.47,1.47,0,0,1,1.09.12,8.56,8.56,0,0,1,1,.73A10,10,0,0,0,368.5,175a13.49,13.49,0,0,0,5.17.74l5.3.06-.19-.17a2.25,2.25,0,0,0,4.48-.4l-.33.17a3.38,3.38,0,0,0,5-1.61h-.4a1.56,1.56,0,0,0,1.13.94,2.27,2.27,0,0,0,1.49-.17,5,5,0,0,0,1.88-2.28l-.39,0a2.63,2.63,0,0,0,3.11,1.59,2.59,2.59,0,0,0,1.65-3.24l-.13.27a3.23,3.23,0,0,0,1-5.3l-.07.38a3.05,3.05,0,0,0,1.6-4.21l-.16.33A3.15,3.15,0,0,0,401,160.3l-.42-.08a1.12,1.12,0,0,0,.35.73,1.48,1.48,0,0,0,.69.36,2.5,2.5,0,0,0,1.48-.12A3.77,3.77,0,0,0,405,159a3.83,3.83,0,0,0-.15-3,4.09,4.09,0,0,0-2.2-2l.14.26a1.64,1.64,0,0,0-.15-1.08l-.09.29a1.89,1.89,0,0,0,.84-1.21l0,.1a3.33,3.33,0,0,0,.43-3.34,7.3,7.3,0,0,0-2.13-2.81l-.17.39a2.23,2.23,0,0,0,1.92-.88l-.12.08a2.86,2.86,0,0,0,1.58-1.11l-.07.07a1.7,1.7,0,0,0,.83-1.38,1.86,1.86,0,0,0-.68-1.54l-.14.4a.85.85,0,0,0,.71-.36,1.28,1.28,0,0,0,.23-.72,1.66,1.66,0,0,0-.56-1.34c-.79-.61-1.76-.64-2.46-1.06l.07.06a10.76,10.76,0,0,0-5.37-3.81l.05.42,1.76-1.09,1.33-.83a9.72,9.72,0,0,0,1.34-.89,1.37,1.37,0,0,0,.43-.81,1.73,1.73,0,0,0-.14-.88,3.81,3.81,0,0,0-1-1.3,8.58,8.58,0,0,0-4.21-2.15,2.2,2.2,0,0,0-.85,0,1,1,0,0,0-.76.56l.32-.11a6.58,6.58,0,0,0-2.91-.72c-.5,0-1,0-1.48,0a2.46,2.46,0,0,0-1.49.47l.34.28c.43-.85,1.48-1.3,2.1-2.25a1.72,1.72,0,0,0,.2-1.69,1.5,1.5,0,0,0-.63-.64,1,1,0,0,0-.95,0l.18.41a1.06,1.06,0,0,0,.61-.65,1.5,1.5,0,0,0,0-.84,1.48,1.48,0,0,0-.42-.71,2,2,0,0,0-.68-.41,5.76,5.76,0,0,0-1.45-.3,2.59,2.59,0,0,0-.78,0,.92.92,0,0,0-.69.55l.43.06a1.61,1.61,0,0,0-2.92-.5l.37,0a1.94,1.94,0,0,0-2.82,0l.3,0a2.44,2.44,0,0,0-3,.26l.34.29,1.46-2a2.84,2.84,0,0,0,.62-1.18,1.59,1.59,0,0,0,0-.72.72.72,0,0,0-.24-.37.71.71,0,0,0-.43-.14l0,.44a1.5,1.5,0,0,0,1.42-.87,1.88,1.88,0,0,0,.07-1.65,2.87,2.87,0,0,0-2.73-1.4h-.1l-.06.08-1,1.19.3,0a2.22,2.22,0,0,0-3.59,2.18l.38-.18a1.06,1.06,0,0,0-1-.34,1.42,1.42,0,0,0-.87.54,3.24,3.24,0,0,0-.47,1.8l.36-.14a1.92,1.92,0,0,0-3.13,1.34l.32-.19a5.83,5.83,0,0,0-2.95-.88l.16.34a2.18,2.18,0,0,0-2.56-3.33l.28.19a2.13,2.13,0,0,0-2.62-2l.25.16a2.4,2.4,0,0,0-.8-1.36,2.09,2.09,0,0,0-1.48-.54,1.58,1.58,0,0,0-1.27,1,2.65,2.65,0,0,0-.12,1.52,12.91,12.91,0,0,0,1,2.7l1.11,2.56.28-.24-3.7-2.41-1.8-1.17a4.34,4.34,0,0,0-1-.56.85.85,0,0,0-.65.1c-.17.09-.31.2-.44.26a3.2,3.2,0,0,1-1,.08,1.39,1.39,0,0,0-1.05.5,2.29,2.29,0,0,0-.21,2.16,3.9,3.9,0,0,0,1.37,1.6,12.83,12.83,0,0,1,1.53,1.26l.11-.3-2.83.29.19.15a3,3,0,0,0-3.74-2.38l.22.12a1.94,1.94,0,0,0-1.45-1.26,7.11,7.11,0,0,0-1.82-.24,5.31,5.31,0,0,0-1.81.2,2.21,2.21,0,0,0-1.35,1.21,3.29,3.29,0,0,0,.58,3.33,9.45,9.45,0,0,0,2.61,2l-.07-.17a1.15,1.15,0,0,1-1,.72,2.91,2.91,0,0,1-1.34-.11,9,9,0,0,0-1.38-.34,2.08,2.08,0,0,0-1.4.27c-.82.5-1.3,1.31-2,1.66-.36.2-.79.14-1.24.32a1.63,1.63,0,0,0-.83,1c-.26.79-.5,1.57-.75,2.33a1.43,1.43,0,0,0,.1,1.24,1.63,1.63,0,0,0,1,.67,2.72,2.72,0,0,0,1.17,0A5.81,5.81,0,0,0,340,132a5.78,5.78,0,0,1,1.95-.69l0-.21a13.1,13.1,0,0,0-2.32,1.11A4.25,4.25,0,0,0,338,134a3.12,3.12,0,0,0-.16,2.18,2,2,0,0,0,1.41,1.4h0a3.39,3.39,0,0,0,1.93.54L341,138a16.81,16.81,0,0,1-1.59,5.26l0,0a10.13,10.13,0,0,0-2.65.33,3.67,3.67,0,0,0-1.61.94,2.62,2.62,0,0,0-.57.93,1.9,1.9,0,0,0-.08.35,2.66,2.66,0,0,1,.7-1.24,3.62,3.62,0,0,1,1.59-.9,9.55,9.55,0,0,1,2.63-.29h0l0,0a16.84,16.84,0,0,0,1.65-5.29l0-.1h-.1a3.27,3.27,0,0,1-1.82-.53h0a1.78,1.78,0,0,1-1.27-1.29,3,3,0,0,1,.16-2.05,4.08,4.08,0,0,1,1.56-1.64,12.73,12.73,0,0,1,2.29-1.08l.65-.26-.7,0a5.75,5.75,0,0,0-2,.7,4.92,4.92,0,0,1-1,.37,2.37,2.37,0,0,1-1.06,0,1.34,1.34,0,0,1-.87-.56,1.18,1.18,0,0,1-.06-1l.74-2.31a1.38,1.38,0,0,1,.7-.87,11.41,11.41,0,0,0,1.24-.32c.85-.41,1.33-1.23,2.07-1.67s1.67-.16,2.56.11a3.15,3.15,0,0,0,1.47.12,1.45,1.45,0,0,0,1.22-.92l0-.11-.1-.06a9.24,9.24,0,0,1-2.51-2,3,3,0,0,1-.54-3,1.9,1.9,0,0,1,1.17-1,5,5,0,0,1,1.69-.18,6.76,6.76,0,0,1,1.74.23,1.61,1.61,0,0,1,1.21,1l0,.17.17-.05a2.69,2.69,0,0,1,3.29,2.11l0,.17.16,0,2.84-.28.35,0-.24-.26a12.74,12.74,0,0,0-1.57-1.3,3.67,3.67,0,0,1-1.25-1.45,1.92,1.92,0,0,1,.16-1.79,1,1,0,0,1,.77-.37,3,3,0,0,0,1.11-.11c.37-.18.6-.42.85-.34a5.49,5.49,0,0,1,.86.51l1.81,1.18,3.69,2.42.54.35-.26-.59-1.1-2.57a13,13,0,0,1-.95-2.61,2.24,2.24,0,0,1,.1-1.29,1.16,1.16,0,0,1,.94-.7,1.92,1.92,0,0,1,1.84,1.56l0,.22.22-.06a1.74,1.74,0,0,1,2.1,1.59v.31l.29-.12a1.77,1.77,0,0,1,2.07,2.7l-.25.32h.41a5.44,5.44,0,0,1,2.74.82l.34.21,0-.39a1.51,1.51,0,0,1,2.41-1l.34.34,0-.48a2.8,2.8,0,0,1,.38-1.57c.27-.38,1-.53,1.22-.19l.59.8-.21-1a1.79,1.79,0,0,1,2.89-1.75l.17.14.14-.17,1-1.19-.16.07a2.45,2.45,0,0,1,2.31,1.16c.39.75-.2,2-1.05,1.89v.44a.21.21,0,0,1,.23.19,1,1,0,0,1,0,.51,2.41,2.41,0,0,1-.53,1l-1.47,2,.33.3a2,2,0,0,1,2.46-.23l.16.12.14-.15a1.48,1.48,0,0,1,2.14,0l.23.27.14-.32a1.18,1.18,0,0,1,2.08.35l.09,1.12.34-1.07c.09-.28.58-.35,1-.3a5.6,5.6,0,0,1,1.33.26,1.25,1.25,0,0,1,.83.83c.1.38,0,.84-.34.94l.19.41c.3-.19.77.08,1,.46a1.27,1.27,0,0,1-.18,1.24c-.5.81-1.56,1.25-2.12,2.28l-.53,1,.88-.71c.66-.53,1.71-.35,2.65-.33a6,6,0,0,1,2.71.65l.23.14.09-.24c.12-.32.67-.37,1.12-.28a7.43,7.43,0,0,1,1.44.43,8.14,8.14,0,0,1,2.54,1.6,3.34,3.34,0,0,1,.88,1.15,1,1,0,0,1-.18,1.18,10.74,10.74,0,0,1-1.27.83l-1.33.83L397.23,135l-.42.26.47.15a10.26,10.26,0,0,1,5.14,3.64l0,0,0,0c.85.48,1.79.52,2.4,1a1.21,1.21,0,0,1,.4,1c0,.37-.2.67-.49.65l-.72,0,.58.45a1.41,1.41,0,0,1,.51,1.16,1.25,1.25,0,0,1-.62,1l-.05,0,0,0a2.37,2.37,0,0,1-1.33.93l-.07,0-.05.06a1.77,1.77,0,0,1-1.51.7l-.68-.06.51.46a6.92,6.92,0,0,1,2,2.62,2.89,2.89,0,0,1-.34,2.89l0,0v.05a1.48,1.48,0,0,1-.64.93l-.18.1.1.19a1.24,1.24,0,0,1,.12.79l0,.19.18.06a3.6,3.6,0,0,1,1.94,1.82,3.41,3.41,0,0,1,.14,2.62,3.33,3.33,0,0,1-1.64,1.93,2,2,0,0,1-1.21.1.81.81,0,0,1-.7-.69l-.05-.87-.36.79a2.73,2.73,0,0,1-2.05,1.49l-.32,0,.16.29a2.61,2.61,0,0,1-1.36,3.57l-.38.12.31.26a2.62,2.62,0,0,1,.76,2.58,2.58,2.58,0,0,1-1.63,2l-.22.07.08.21a2.17,2.17,0,0,1-1.37,2.69,2.2,2.2,0,0,1-2.59-1.32l-.15-.47-.23.44a4.63,4.63,0,0,1-1.7,2.11,1.49,1.49,0,0,1-2-.54l-.2-.6-.19.61a2.84,2.84,0,0,1-1.91,1.74,2.78,2.78,0,0,1-2.43-.34l-.33-.25v.42a1.85,1.85,0,0,1-3.68.33l0-.17H379l-5.31-.05a13.18,13.18,0,0,1-5-.71,9.21,9.21,0,0,1-2.17-1.21,7.71,7.71,0,0,0-1-.75,1.85,1.85,0,0,0-1.34-.16,12.46,12.46,0,0,1-2.38.53,8.51,8.51,0,0,1-6.47-2.23,4.78,4.78,0,0,0-.94-.77,2.72,2.72,0,0,0-1.2-.27,18.82,18.82,0,0,1-2.27-.14,15.88,15.88,0,0,1-2.18-.44,5.22,5.22,0,0,1-1.91-.92,1.91,1.91,0,0,1-.75-1.76,1.33,1.33,0,0,1,1.2-1.26h.14l0-.14a2.81,2.81,0,0,0-.31-1.73,1.72,1.72,0,0,0-1.48-.88,1.22,1.22,0,0,0-1.31,1,1.15,1.15,0,0,0,.85,1.35l-.06-.28a1.73,1.73,0,0,1-1.93-.12,1.93,1.93,0,0,1-.92-1.7,2.75,2.75,0,0,1,2.72-2.37h.18l0-.18A6.43,6.43,0,0,1,345,157l.13-.57-.36.46a2.23,2.23,0,0,1-3,.34l-.11-.09-.08.12a4.3,4.3,0,0,1-1.94,1.68,2.57,2.57,0,0,1-2.34-.21,1.69,1.69,0,0,1-.81-1.94,1.56,1.56,0,0,1,1.54-1.19l.2,0-.1-.18a2,2,0,0,1,1.76-2.88h.12l0-.12a3.18,3.18,0,0,1,1.92-3.37l-.07-.13a1.65,1.65,0,0,1-2.33-.9l0-.14-.07.13a1.6,1.6,0,0,1-1.3.69,3.35,3.35,0,0,1-1.33-.21A4,4,0,0,1,335,147.4a1.86,1.86,0,0,1-.43-1.18C334.53,145.94,334.57,145.79,334.56,145.79Z" style="fill:#455a64"></path><path d="M383,150.14a16.86,16.86,0,0,0-16.55-17.77,17.37,17.37,0,0,0-17.6,15.87c-.69,7.85-1.21,15.77-1,18.62.67,8.59,6,11.61,8.15,12.48a11.48,11.48,0,0,0,2.34.42h0a.05.05,0,0,1,.05.06l-1.3,10c-.47,6.52-1.9,28.71,4.74,29.22s17-21.43,17.56-28Z" style="fill:#ffbe9d"></path><path d="M351.47,154.46A1.37,1.37,0,0,0,352.7,156a1.33,1.33,0,0,0,1.53-1.12,1.37,1.37,0,0,0-1.22-1.49A1.34,1.34,0,0,0,351.47,154.46Z" style="fill:#263238"></path><path d="M351,150.44c.16.19,1.28-.49,2.77-.37s2.54.94,2.71.77-.06-.41-.51-.79a3.84,3.84,0,0,0-2.15-.83,3.71,3.71,0,0,0-2.22.51C351.15,150,351,150.35,351,150.44Z" style="fill:#263238"></path><path d="M365.45,155.58a1.36,1.36,0,0,0,1.23,1.48,1.33,1.33,0,0,0,1.53-1.12,1.36,1.36,0,0,0-1.22-1.48A1.34,1.34,0,0,0,365.45,155.58Z" style="fill:#263238"></path><path d="M365.73,151.86c.16.19,1.27-.49,2.77-.37s2.53.94,2.71.77-.06-.41-.52-.79a3.89,3.89,0,0,0-2.15-.84,3.78,3.78,0,0,0-2.22.52C365.83,151.46,365.65,151.77,365.73,151.86Z" style="fill:#263238"></path><path d="M359.39,162.34a9.16,9.16,0,0,0-2.39-.62c-.38-.07-.74-.18-.78-.44a1.9,1.9,0,0,1,.35-1.09c.43-.88.89-1.8,1.37-2.77,1.9-3.94,3.32-7.2,3.15-7.27s-1.84,3.06-3.74,7L356,160a2.12,2.12,0,0,0-.32,1.45.94.94,0,0,0,.58.6,3,3,0,0,0,.64.14A10.19,10.19,0,0,0,359.39,162.34Z" style="fill:#263238"></path><path d="M358.43,179.76s5.74.92,13.32-2.79c-.46.23-2.65,8.67-13.67,5.48Z" style="fill:#eb996e"></path><path d="M359.73,165.93a2.74,2.74,0,0,1,2.5-.8,2.47,2.47,0,0,1,1.62,1,1.5,1.5,0,0,1,0,1.76,1.82,1.82,0,0,1-2,.33A5.44,5.44,0,0,1,360,167a1.54,1.54,0,0,1-.39-.46.5.5,0,0,1,0-.55" style="fill:#eb996e"></path><path d="M363.71,163.7c-.24,0-.38,1.56-1.86,2.58s-3.2.72-3.23.94.36.34,1.09.41a4.11,4.11,0,0,0,2.69-.69,3.48,3.48,0,0,0,1.45-2.17C364,164.1,363.82,163.69,363.71,163.7Z" style="fill:#263238"></path><path d="M365.78,147.1c.11.41,1.62.34,3.36.69s3.12.92,3.38.58c.12-.16-.1-.56-.64-1a5.64,5.64,0,0,0-2.45-1.06,5.71,5.71,0,0,0-2.69.1C366.08,146.62,365.73,146.91,365.78,147.1Z" style="fill:#263238"></path><path d="M351.81,146.58c.24.36,1.29.09,2.54.17s2.27.41,2.54.07c.12-.16,0-.5-.45-.86a3.76,3.76,0,0,0-4.09-.19C351.88,146.08,351.71,146.41,351.81,146.58Z" style="fill:#263238"></path><path d="M346.58,137.87a11.19,11.19,0,0,1,.21-1.43,4.31,4.31,0,0,1,1.27-1.78c1.82-1.78,3.74-3.63,6-4.22,1.4-.36,2.85-.22,4.25-.57a25,25,0,0,0,2.54-.92,20.71,20.71,0,0,1,10.79-.58,17,17,0,0,1,5.79,1.88,20.66,20.66,0,0,1,5.19,4.72,31.53,31.53,0,0,1,5.79,9.32,15.45,15.45,0,0,1,.83,8.8c-.68,2.93-2.76,5.56-5.3,6-.29-.41-.58-.81-.88-1.21l-1.41-1.78c.23.71,0,.66-.6,1a1.23,1.23,0,0,1-1.68-.63c-.51.58-1.5-.14-1.29-.93-.6.27-1.28-.56-1-1.25-.68.19-1-.9-1.27-1.65-.16-.4-.39-.76-.58-1.14a7.33,7.33,0,0,1-.75-4.05,7.25,7.25,0,0,1-.93-4c0-.88-.06-1.76-.1-2.64l-.43-.65a1.44,1.44,0,0,1-1.06,1.28,3.07,3.07,0,0,1-1.58-.16l-1.54-.43-1,.2a4,4,0,0,1-.5,2.52,2.47,2.47,0,0,1-1,1.35.75.75,0,0,1-1-.88.82.82,0,0,1-1.25-.3,2.73,2.73,0,0,1-.22-1.64,6.89,6.89,0,0,1,1.57-3.68l-2.92,2.32a1.33,1.33,0,0,1-.7.35.73.73,0,0,1-.83.73,1.87,1.87,0,0,1-.95-.76c-.6-.75-1.21-2-.56-2.73-.3-.08-.41-.61-.19-.88L356,139.53c.32-.15.63.36.52.75a1.68,1.68,0,0,1-.71.86,2.37,2.37,0,0,1,.23,1.49c.6-.45,1.36.54,1.11,1.32a1.75,1.75,0,0,1-1.73,1.14,1.23,1.23,0,0,1-1.3-1c-.69.08-1.26-.9-1-1.64-.51.29-.87-.63-.85-1.3a9.48,9.48,0,0,1,.78-3.38.18.18,0,0,1-.26.05.22.22,0,0,1-.05-.14l-1.95,3.83a9.8,9.8,0,0,0-1.24,3.44c-.05.51-.17,1.19-.6,1.2a.56.56,0,0,1-.32-.11,6.28,6.28,0,0,1-2.51-3.46,4.84,4.84,0,0,1-.31-1.52A21,21,0,0,1,346.58,137.87Z" style="fill:#263238"></path><path d="M381.36,155.17c.15-.06,6-1.38,5.45,4.48s-6.32,4.08-6.31,3.92S381.36,155.17,381.36,155.17Z" style="fill:#ffbe9d"></path><path d="M382.49,161.52s.1.08.27.17a1,1,0,0,0,.76.09,2.54,2.54,0,0,0,1.38-2.15,3.47,3.47,0,0,0-.15-1.49,1.19,1.19,0,0,0-.69-.85.52.52,0,0,0-.63.22c-.09.16-.07.28-.1.28s-.12-.11-.05-.34a.67.67,0,0,1,.27-.35.75.75,0,0,1,.58-.09,1.43,1.43,0,0,1,1,1,3.52,3.52,0,0,1,.19,1.67,2.65,2.65,0,0,1-1.72,2.39,1.11,1.11,0,0,1-.92-.25C382.49,161.66,382.47,161.53,382.49,161.52Z" style="fill:#eb996e"></path><path d="M360.14,136.54a1.56,1.56,0,0,1-.33-.79,1.06,1.06,0,0,1,.34-.86,1.12,1.12,0,0,1,1.15-.19l.24.1-.09-.24a1.17,1.17,0,0,1,.42-1.28,1.15,1.15,0,0,1,1.45.18l.21-.16a.77.77,0,0,1-.07-.16.67.67,0,0,1,.14-.54.75.75,0,0,1,.51-.26,1.27,1.27,0,0,1,.58.07,1.47,1.47,0,0,0,.64.21c.29,0,.43-.23.58-.31a2.39,2.39,0,0,1,.48-.24,2.34,2.34,0,0,1,1-.13,2.54,2.54,0,0,1,1.34.44c.27.2.4.35.42.33a1.19,1.19,0,0,0-.36-.41,2.43,2.43,0,0,0-1.39-.55,2.54,2.54,0,0,0-1,.11,2.43,2.43,0,0,0-.54.26c-.18.1-.32.25-.46.25a1.52,1.52,0,0,1-.54-.19,1.42,1.42,0,0,0-.71-.1,1,1,0,0,0-.67.35.92.92,0,0,0-.2.77,1,1,0,0,0,.11.25l.21-.17a1.35,1.35,0,0,0-2.28,1.35l.15-.14a1.3,1.3,0,0,0-1.36.26,1.19,1.19,0,0,0-.35,1,1.16,1.16,0,0,0,.28.63A.5.5,0,0,0,360.14,136.54Z" style="fill:#455a64"></path><path d="M353.46,137.67a1.74,1.74,0,0,1-.44-.78,1.32,1.32,0,0,1,.15-1,1.34,1.34,0,0,1,1.09-.66h.19l-.11-.16a1.62,1.62,0,0,1-.33-1.46.86.86,0,0,1,.58-.55.68.68,0,0,1,.76.17l.68.86-.46-1a1.4,1.4,0,0,1,0-1.15,1.26,1.26,0,0,1,1-.69,1.32,1.32,0,0,1,.87.16l.29.17-.1-.32c-.14-.47.36-1,.82-1a2.21,2.21,0,0,1,1.36.46l.24.16-.05-.28a1,1,0,0,1,.39-.91,1.83,1.83,0,0,1,.94-.32,4.59,4.59,0,0,1,1.68.18,7.8,7.8,0,0,1,1.36.63s-.09-.11-.31-.26a4.57,4.57,0,0,0-2.75-.75,2,2,0,0,0-1.05.34,1.19,1.19,0,0,0-.5,1.13l.19-.12a2.49,2.49,0,0,0-1.52-.52,1.25,1.25,0,0,0-.8.39,1,1,0,0,0-.25.91l.19-.15a1.63,1.63,0,0,0-1-.2,1.52,1.52,0,0,0-1.17.85,1.6,1.6,0,0,0,0,1.37l.21-.13a.92.92,0,0,0-1-.24,1.07,1.07,0,0,0-.72.7,1.82,1.82,0,0,0,.39,1.67l.07-.16a1.52,1.52,0,0,0-1.22.78,1.44,1.44,0,0,0-.12,1.09,1.53,1.53,0,0,0,.35.61C353.38,137.64,353.45,137.68,353.46,137.67Z" style="fill:#455a64"></path><path d="M339.25,137.68a1,1,0,0,1,.4-.69,1.26,1.26,0,0,1,.9-.24,4,4,0,0,1,1.23.4l.14.07v-.16a1.14,1.14,0,0,1,1-1,3.25,3.25,0,0,1,1.84.46l.79.37-.66-.58a.94.94,0,0,1,.19-1.34,2.15,2.15,0,0,1,1.67-.24h.08l.51.09-.41-.32a1,1,0,0,1,.25-1.58,1.53,1.53,0,0,1,1.67.31l.5.47-.31-.61a2.3,2.3,0,0,1,.21-2.31,2.12,2.12,0,0,1,1.64-.85,2.41,2.41,0,0,1,1.22.26c.26.14.38.25.4.24l-.08-.09a2.1,2.1,0,0,0-.28-.22,2.33,2.33,0,0,0-1.27-.34,2.28,2.28,0,0,0-1.8.88,2.48,2.48,0,0,0-.25,2.54L349,133a1.79,1.79,0,0,0-2-.36,1.3,1.3,0,0,0-.65.91,1.13,1.13,0,0,0,.36,1.11l.11-.24h-.09a2.35,2.35,0,0,0-1.88.3,1.38,1.38,0,0,0-.47.83,1,1,0,0,0,.28.89l.14-.2a3.53,3.53,0,0,0-2-.46,1.35,1.35,0,0,0-1.17,1.26l.13-.09a3.76,3.76,0,0,0-1.29-.38,1.36,1.36,0,0,0-1,.31,1,1,0,0,0-.34.54C339.22,137.6,339.24,137.68,339.25,137.68Z" style="fill:#455a64"></path><path d="M347.79,124.89a1,1,0,0,0,.34.15,4.44,4.44,0,0,0,1,.14,3.18,3.18,0,0,1,1.46.35,1,1,0,0,1,.46.69.71.71,0,0,1-.34.75l.17.14c.08-.33.52-.51.92-.7a4.39,4.39,0,0,1,1.28-.43,1.58,1.58,0,0,1,1.24.3,1.08,1.08,0,0,1,.46,1l-.07.32.26-.19a2.89,2.89,0,0,1,1.79-.56,3.14,3.14,0,0,1,1.45.34,3.84,3.84,0,0,1,1.07.82s-.05-.12-.2-.31a2.73,2.73,0,0,0-.8-.65,3.29,3.29,0,0,0-1.52-.41,3.12,3.12,0,0,0-1.94.57l.2.12a1.29,1.29,0,0,0-.54-1.27,1.82,1.82,0,0,0-1.43-.36,4.27,4.27,0,0,0-1.36.45,5.07,5.07,0,0,0-.61.32,1,1,0,0,0-.44.56l-.06.25.23-.1a.91.91,0,0,0,.46-1,1.15,1.15,0,0,0-.57-.83,3.09,3.09,0,0,0-1.56-.32,5.19,5.19,0,0,1-1-.07A2.08,2.08,0,0,0,347.79,124.89Z" style="fill:#455a64"></path><path d="M361.31,120.94a3,3,0,0,1,.69.16,1.66,1.66,0,0,1,.62.48,1.41,1.41,0,0,1,.35.92v.14l.14,0a.87.87,0,0,1,.92.62,2.64,2.64,0,0,1-.08,1.46l-.12.52.35-.4.06-.06a1.13,1.13,0,0,1,.94-.3,1.27,1.27,0,0,1,.83.45,2,2,0,0,1,.4,1.6,3.65,3.65,0,0,1-.4,1.12c-.13.25-.21.39-.19.4a1.33,1.33,0,0,0,.28-.35,3.18,3.18,0,0,0,.49-1.13,2.18,2.18,0,0,0-.39-1.8,1.48,1.48,0,0,0-2.15-.18l-.07.08.23.12a2.88,2.88,0,0,0,.05-1.62,1.09,1.09,0,0,0-1.21-.75l.14.11a1.58,1.58,0,0,0-.43-1,1.66,1.66,0,0,0-.71-.48,1.36,1.36,0,0,0-.55-.08A.41.41,0,0,0,361.31,120.94Z" style="fill:#455a64"></path><path d="M372.16,130s.13,0,.36,0a2.16,2.16,0,0,0,.84-.49,2.36,2.36,0,0,0,.72-1.27,1.25,1.25,0,0,1,.23-.71c.17-.17.5-.26.73-.55a1.32,1.32,0,0,0-.19-1.81v.19a4.33,4.33,0,0,0,1.26-1.47,1.91,1.91,0,0,0,.25-.7,4.42,4.42,0,0,0-.38.63,4.6,4.6,0,0,1-1.28,1.34l-.13.1.13.1a1.09,1.09,0,0,1,.13,1.45c-.15.22-.45.3-.7.54a1.36,1.36,0,0,0-.29.84,2.25,2.25,0,0,1-.61,1.18A3.25,3.25,0,0,1,372.16,130Z" style="fill:#455a64"></path><path d="M375.36,132.57a.63.63,0,0,0,.22.05,4.31,4.31,0,0,0,.63,0,3.6,3.6,0,0,0,2.05-.94l-.17,0a2.34,2.34,0,0,0,2.48.92,1.42,1.42,0,0,0,.89-.59,2.23,2.23,0,0,0,.14-.37.53.53,0,0,1,.19-.23,1.74,1.74,0,0,1,.63-.22,1.79,1.79,0,0,0,.7-.22.74.74,0,0,0,.43-.62l-.17.11a2.37,2.37,0,0,0,1.61.17,2.53,2.53,0,0,0,1.11-.57,2,2,0,0,0,.5-.64.63.63,0,0,0,.09-.28,3.5,3.5,0,0,1-.68.81,2.59,2.59,0,0,1-1.07.49,2.15,2.15,0,0,1-1.45-.2l-.17-.09v.2a.49.49,0,0,1-.31.4,1.94,1.94,0,0,1-.63.19,1.74,1.74,0,0,0-.74.26.78.78,0,0,0-.28.34,2.14,2.14,0,0,1-.12.34,1.25,1.25,0,0,1-.73.47,2.23,2.23,0,0,1-.89,0,2.06,2.06,0,0,1-1.34-.83l-.07-.11-.1.1a3.61,3.61,0,0,1-1.91,1C375.67,132.58,375.36,132.54,375.36,132.57Z" style="fill:#455a64"></path><path d="M395.53,142.49s0,0,0-.09a1.68,1.68,0,0,0,.07-.27,2.8,2.8,0,0,0,0-1.06,6.13,6.13,0,0,0-.58-1.55,6,6,0,0,0-.52-.89,1.63,1.63,0,0,0-.43-.39.69.69,0,0,0-.64-.05l.15.12a1.79,1.79,0,0,0-.68-1.74,1.8,1.8,0,0,0-2,0l.2.12a1.2,1.2,0,0,0-.4-1,1.17,1.17,0,0,0-1.12-.23,1.11,1.11,0,0,0-.55.35l.23.11a.77.77,0,0,0-.23-.65,1,1,0,0,0-.57-.3,2.43,2.43,0,0,0-1.16.19l.16.07a1.9,1.9,0,0,0-1.08-.9,2.61,2.61,0,0,0-1.29-.11A6.46,6.46,0,0,0,383,135l.13.13a.45.45,0,0,0,0-.46.72.72,0,0,0-.3-.28,1.39,1.39,0,0,0-.7-.17,4.15,4.15,0,0,0-1.08.23,3.27,3.27,0,0,0-.62.3.59.59,0,0,0-.2.15,8.57,8.57,0,0,1,.86-.35,4.55,4.55,0,0,1,1.05-.18,1.24,1.24,0,0,1,.6.17c.2.11.35.31.24.5l-.17.28.3-.15a6.53,6.53,0,0,1,2-.76,2.4,2.4,0,0,1,1.18.11,1.66,1.66,0,0,1,.93.78l.05.1.11,0a2.07,2.07,0,0,1,1-.18c.32,0,.64.34.59.64l-.09.46.32-.35a1,1,0,0,1,.43-.27.89.89,0,0,1,.86.18.94.94,0,0,1,.32.81l0,.28.24-.16a1.53,1.53,0,0,1,1.75,0,1.59,1.59,0,0,1,.61,1.5l0,.22.2-.1c.3-.14.62.12.82.37a5.38,5.38,0,0,1,.52.85,7,7,0,0,1,.62,1.49A3.42,3.42,0,0,1,395.53,142.49Z" style="fill:#455a64"></path><path d="M393.39,150.11a.75.75,0,0,0,.15-.16,5.14,5.14,0,0,0,.35-.51,1.87,1.87,0,0,0,.3-.95,1.45,1.45,0,0,0-.15-.62,1,1,0,0,0-.54-.49l0,.14a1.25,1.25,0,0,0,.16-1.3,1.27,1.27,0,0,0-1.32-.7l.11.19a1,1,0,0,0,.06-1.18,1.49,1.49,0,0,0-1.08-.62,4.65,4.65,0,0,1-.59,0,.48.48,0,0,1-.34-.35,2.19,2.19,0,0,0-.29-.6,1.23,1.23,0,0,0-.6-.4,7,7,0,0,0-1.4-.15,1.56,1.56,0,0,1-1.12-.43c-.12-.15-.19-.35-.32-.54a1.37,1.37,0,0,0-1.74-.49l.14.17a1,1,0,0,0,0-1.23,1.47,1.47,0,0,0-.95-.57,4.66,4.66,0,0,0-1.74.06,5.93,5.93,0,0,0-1.08.33,1.61,1.61,0,0,0-.35.18,12.62,12.62,0,0,1,1.45-.37,4.68,4.68,0,0,1,1.68,0,1.38,1.38,0,0,1,.82.51.86.86,0,0,1,0,1l-.32.39.46-.21a1.17,1.17,0,0,1,1,0,1.12,1.12,0,0,1,.4.38,5,5,0,0,0,.33.56,1.28,1.28,0,0,0,.6.4,2.8,2.8,0,0,0,.69.13,6.57,6.57,0,0,1,1.35.15.93.93,0,0,1,.47.3,2.17,2.17,0,0,1,.26.55.76.76,0,0,0,.51.49,5.3,5.3,0,0,0,.63.06,1.19,1.19,0,0,1,.9.5.75.75,0,0,1,0,.88l-.23.26.34-.06a1.06,1.06,0,0,1,1.09.56,1.08,1.08,0,0,1-.12,1.1l-.08.1.13,0a1,1,0,0,1,.6.95,1.87,1.87,0,0,1-.24.9C393.55,149.86,393.37,150.09,393.39,150.11Z" style="fill:#455a64"></path><path d="M394.21,164.47a.6.6,0,0,0,.27-.06,1.81,1.81,0,0,0,.64-.42,1.85,1.85,0,0,0,.54-1.08,2,2,0,0,0-.41-1.53v.15a3.78,3.78,0,0,0,.8-1.26,1.53,1.53,0,0,0,0-.85,1.11,1.11,0,0,0-.57-.71v.23a1.5,1.5,0,0,0,.77-1.32,1.71,1.71,0,0,0-.19-.89,1.48,1.48,0,0,0-.64-.6.51.51,0,0,1-.34-.52,2.16,2.16,0,0,0-.11-.79,2.65,2.65,0,0,0-.89-1.14c-.34-.29-.64-.56-.94-.8a4.23,4.23,0,0,0-1.55-.89,1.84,1.84,0,0,0-.48-.09c-.11,0-.17,0-.17,0a5.64,5.64,0,0,1,.62.16A4.78,4.78,0,0,1,393,153l.91.82a2.41,2.41,0,0,1,.81,1.05,1.85,1.85,0,0,1,.09.71.77.77,0,0,0,.11.45,1,1,0,0,0,.35.29,1.38,1.38,0,0,1,.07,2.36l-.24.12.24.12a1,1,0,0,1,.43,1.25,3.4,3.4,0,0,1-.73,1.18l-.06.07.06.07a1.87,1.87,0,0,1,.4,1.37,1.76,1.76,0,0,1-.45,1A2.52,2.52,0,0,1,394.21,164.47Z" style="fill:#455a64"></path><path d="M372,141.12a1.91,1.91,0,0,0,.81-.25,2.14,2.14,0,0,0,.76-.55,1.41,1.41,0,0,0,.36-1.13,1.15,1.15,0,0,0-.08-.28l-.07.17a1.25,1.25,0,0,0,.72-.81,1.21,1.21,0,0,0-.09-.88c-.26-.44-.6-.52-.59-.49s.25.17.42.57a1,1,0,0,1,0,.73,1.06,1.06,0,0,1-.59.64l-.12,0,.05.13a1.05,1.05,0,0,1,.06.21,1.27,1.27,0,0,1-.29.93,2.22,2.22,0,0,1-.66.55C372.3,141,372,141.08,372,141.12Z" style="fill:#455a64"></path><path d="M366.11,137.74a1.61,1.61,0,0,1-.1-1,1.13,1.13,0,0,1,.69-.78,1.2,1.2,0,0,1,1.25.31l.15.17.06-.22a2.55,2.55,0,0,1,.37-.76,1,1,0,0,1,.7-.41c.43,0,.87.41.73.75l.24.07a2,2,0,0,1,.84-1.25,2,2,0,0,1,1.17-.34,3.27,3.27,0,0,1,1.09.29s-.07-.09-.24-.19a1.89,1.89,0,0,0-.84-.26,2.06,2.06,0,0,0-1.3.31,2.21,2.21,0,0,0-1,1.39l.25.07a.75.75,0,0,0-.2-.79,1.08,1.08,0,0,0-.77-.32,1.23,1.23,0,0,0-.9.52,2.38,2.38,0,0,0-.41.85l.22,0a1.42,1.42,0,0,0-1.51-.34,1.26,1.26,0,0,0-.77.94,1.32,1.32,0,0,0,.08.79C366,137.68,366.1,137.75,366.11,137.74Z" style="fill:#455a64"></path><polygon points="313.43 440.42 310.06 457.01 298.97 458.05 294.3 452.55 298.57 432.75 313.43 440.42" style="fill:#ffbe9d"></polygon><path d="M292.09,450.71l0,1.3s-21.22,8.19-21.56,12.35l41.67,1-.24-14.54C305.66,453.71,299.17,453.89,292.09,450.71Z" style="fill:#A2D8D6"></path><g style="opacity:0.6000000000000001"><path d="M307.6,455.4a1.8,1.8,0,0,1,1.13,2.06,1.63,1.63,0,0,1-2,1.19,1.89,1.89,0,0,1-1.18-2.19,1.67,1.67,0,0,1,2.15-1" style="fill:#fff"></path></g><path d="M312.16,465.4l-.06-3.5-39.91.29a3.8,3.8,0,0,0-2,3.43Z" style="fill:#263238"></path><path d="M291.9,452.12c0,.22,1,.34,2,1.05s1.5,1.62,1.68,1.54-.08-1.32-1.29-2.16S291.86,451.93,291.9,452.12Z" style="fill:#263238"></path><path d="M287.49,453.91c-.05.2.82.59,1.49,1.51s.85,1.87,1,1.87.36-1.21-.49-2.33S287.5,453.71,287.49,453.91Z" style="fill:#263238"></path><path d="M284.88,459.33c.19.05.5-1,0-2.19s-1.44-1.67-1.53-1.49.49.81.88,1.78S284.68,459.3,284.88,459.33Z" style="fill:#263238"></path><path d="M377.89,436.53c.16.54,0,21.22,0,21.22l-6.22,3.87-8.12-5.11-1.72-20Z" style="fill:#ffbe9d"></path><path d="M363,454.71s11.07,8.22,16.43,1.1l1.4,3.45,6.29,24.59a3.36,3.36,0,0,1-1.77,3.95,2.94,2.94,0,0,1-3.22-.65c-4.55-4.53-21.22-21.31-21.06-23.58l.07-6a3.05,3.05,0,0,1,1.86-2.82Z" style="fill:#A2D8D6"></path><path d="M384.77,488,361,461.47v1.32a3.49,3.49,0,0,0,1.13,2.91A254.71,254.71,0,0,0,382.1,488c.73.74,2.13.09,2.67-.06Z" style="fill:#263238"></path><g style="opacity:0.6000000000000001"><path d="M364.5,457.54a2,2,0,0,1,.52,2.52,1.72,1.72,0,0,1-2.38.55,2.07,2.07,0,0,1-.53-2.66,1.76,1.76,0,0,1,2.53-.29" style="fill:#fff"></path></g><path d="M377.92,474.39c.17.09.84-1.54,2.6-2.43s3.38-.51,3.42-.7-.35-.32-1.05-.41a4.51,4.51,0,0,0-2.66.5,4.79,4.79,0,0,0-2,1.92C377.89,473.91,377.85,474.37,377.92,474.39Z" style="fill:#263238"></path><path d="M380.06,478.55c.14.14,1.09-.88,2.62-1.35s2.86-.21,2.9-.4-1.35-.82-3.09-.25S379.9,478.47,380.06,478.55Z" style="fill:#263238"></path><path d="M374,469.07c.14.15,1.6-1.42,3.92-2.37s4.4-.89,4.41-1.1-2.17-.58-4.65.46S373.82,469,374,469.07Z" style="fill:#263238"></path><path d="M373.44,461.58c.08.19,1.71-.53,3.85-.62s3.83.44,3.89.24-1.63-1.05-3.92-.93S373.34,461.44,373.44,461.58Z" style="fill:#263238"></path><path d="M378.51,460.89a3,3,0,0,0-.17-1.17,8.39,8.39,0,0,0-1.42-2.85,3.5,3.5,0,0,0-1.76-1.42,1.2,1.2,0,0,0-1.31.55,2.16,2.16,0,0,0-.21,1.47,4.32,4.32,0,0,0,4.43,3.37,5,5,0,0,0,4.34-3.63,1.86,1.86,0,0,0-.18-1.5,1.16,1.16,0,0,0-1.35-.41,4.2,4.2,0,0,0-1.74,1.42,9.42,9.42,0,0,0-1.57,2.77,3,3,0,0,0-.26,1.14,15,15,0,0,1,2.17-3.59,4,4,0,0,1,1.55-1.2.61.61,0,0,1,.73.22,1.26,1.26,0,0,1,.07,1,4.52,4.52,0,0,1-3.8,3.11,3.74,3.74,0,0,1-3.8-2.81,1.53,1.53,0,0,1,.1-1,.64.64,0,0,1,.72-.31,3.09,3.09,0,0,1,1.52,1.17A12.39,12.39,0,0,1,378.51,460.89Z" style="fill:#263238"></path><path d="M389.6,265.81a104,104,0,0,1,7.75,20.92c3.42,12.92,7.27,19.41,5.87,43.23-.71,12.15-10.76,45.13-13.08,56.74-1.91,9.56-7.86,54.45-10.89,66.32H362l-1.76-132.9s-27.51,77.56-31,86.52-15.72,44.49-15.72,44.49L291.9,445.4s13.15-63.57,16.42-79.4,12.17-60.49,15.95-73.93,7.35-27.63,7.35-27.63Z" style="fill:#263238"></path><path d="M387.49,289.34s0,.24.18.66a9.56,9.56,0,0,0,.78,1.67,14.16,14.16,0,0,0,4,4.48,13.6,13.6,0,0,0,5.41,2.36,8.87,8.87,0,0,0,1.78.17,1.78,1.78,0,0,0,.65-.05c0-.1-.92-.12-2.36-.47a15.11,15.11,0,0,1-5.2-2.42,16,16,0,0,1-4-4.25C387.92,290.2,387.57,289.3,387.49,289.34Z" style="fill:#455a64"></path><path d="M322.5,299a2,2,0,0,0,.63.18,9.91,9.91,0,0,0,1.79.2,11.54,11.54,0,0,0,2.65-.27,12.42,12.42,0,0,0,3.07-1.17,15.11,15.11,0,0,0,4.52-4,8.25,8.25,0,0,0,1.34-2.13c-.06,0-.6.74-1.59,1.9a16.93,16.93,0,0,1-4.49,3.75,12.36,12.36,0,0,1-5.51,1.53C323.43,299.07,322.51,298.9,322.5,299Z" style="fill:#455a64"></path><path d="M359.91,291.49a5,5,0,0,0-.19,1.08c-.09.69-.19,1.7-.29,2.94-.21,2.5-.38,6-.34,9.78s.26,7.27.5,9.76c.13,1.25.25,2.25.35,2.95a3.88,3.88,0,0,0,.21,1.06,5.34,5.34,0,0,0,0-1.09c-.06-.8-.12-1.79-.2-3-.16-2.49-.33-5.93-.37-9.74s.09-7.25.21-9.74c.05-1.16.1-2.15.14-3A5.17,5.17,0,0,0,359.91,291.49Z" style="fill:#455a64"></path><path d="M383.06,189.05l15.68,7.47-2.19,28.58s-1.85,2.16-4.85,17.48,7,45.11,7,45.11L325,289.54s8.66-61.81,9.66-70l3.68-31.26,14.83-.81h4.27l3.69,26.64,18.56-25.83Z" style="fill:#455a64"></path><path d="M314.9,244.47a4.32,4.32,0,0,0,.22-1.69,12,12,0,0,0-.68-4,11.51,11.51,0,0,0-2-3.54c-.67-.8-1.18-1.17-1.22-1.13a20.15,20.15,0,0,1,2.76,4.84A21.5,21.5,0,0,1,314.9,244.47Z" style="fill:#263238"></path><path d="M285,237.38l26.27-.23,9.93-29.34h0a115,115,0,0,1,5.2-10.35c5.26-9.68,11.95-9.17,11.95-9.17l8.06,12.54L337.81,220s-8.19,36.23-17.68,37.82c-15.76,2.64-44-8.25-44-8.25Z" style="fill:#455a64"></path><g style="opacity:0.2"><path d="M331.07,246.37c0-1-.27-2.28.59-2.71a2.91,2.91,0,0,1,2.23.17c21.77,7.71,34.36-1.24,56.13,6.47l4.43,22.36c-9.66.08-14.07-2.18-23.57-5.22-9.68-3.1-19.38-6.2-28.88-9.88a26.14,26.14,0,0,1-7.47-3.91A9.49,9.49,0,0,1,331.07,246.37Z"></path></g><path d="M336.35,209.4a8.58,8.58,0,0,1-.51,1.48,24.41,24.41,0,0,0-.91,3.63c-.51,2.89-.62,5.28-.76,5.28a15.18,15.18,0,0,1,.25-5.38,15.91,15.91,0,0,1,1.08-3.67A3.46,3.46,0,0,1,336.35,209.4Z" style="fill:#263238"></path><path d="M470.26,238.22h6a6.24,6.24,0,0,1,6.24,6.24v.74a6.24,6.24,0,0,1-6.24,6.24h-6a0,0,0,0,1,0,0V238.22A0,0,0,0,1,470.26,238.22Z" transform="translate(6.45 -12.17) rotate(1.47)" style="fill:#A2D8D6"></path><path d="M206.87,232.38,260.66,227l202.08,5.2a3.57,3.57,0,0,1,3.47,3.65l-.49,19a3.56,3.56,0,0,1-3.65,3.47L259.22,253l-52.6-10.79Z" style="fill:#A2D8D6"></path><path d="M206.79,235.15l-4.94-.12-4.2,1.42c-.35.26-.26.59,0,1l4.23,1.38,4.84.12Z" style="fill:#263238"></path><rect x="260.32" y="227" width="4.19" height="26.1" transform="translate(6.26 -6.67) rotate(1.47)" style="fill:#263238"></rect><path d="M466.9,233.31h0a4.65,4.65,0,0,1-4.77,4.52l-100.86-2.59a4.66,4.66,0,0,1-4.53-4.77h0a4.65,4.65,0,0,1,4.77-4.52l100.86,2.59A4.66,4.66,0,0,1,466.9,233.31Z" style="fill:#A2D8D6"></path><path d="M466.9,233.31a5.37,5.37,0,0,0-.57-2.24,4.63,4.63,0,0,0-2-1.93,4.43,4.43,0,0,0-1.71-.49c-.63,0-1.33,0-2.06-.05L435.85,228l-36.7-.88-21.67-.55L366,226.32l-2.92-.07a10.73,10.73,0,0,0-2.85.11,4.38,4.38,0,0,0-.22,8.4,10.51,10.51,0,0,0,2.84.26l2.92.07,11.47.3,21.67.58,36.7,1,24.74.71c.73,0,1.42.06,2.06.06a4.53,4.53,0,0,0,1.73-.4,4.58,4.58,0,0,0,2.06-1.83,5.28,5.28,0,0,0,.69-2.2,4.35,4.35,0,0,1,0,.59,4.55,4.55,0,0,1-.56,1.67,4.72,4.72,0,0,1-2.1,1.91,4.57,4.57,0,0,1-1.78.43c-.66,0-1.34,0-2.08,0l-24.74-.56-36.7-.89-21.68-.54-11.46-.29-2.92-.07-1.47,0a5.32,5.32,0,0,1-1.53-.25,4.9,4.9,0,0,1,.25-9.39,5.06,5.06,0,0,1,1.54-.17l1.47,0,2.92.07,11.46.3,21.67.58,36.7,1,24.74.72c.73,0,1.41,0,2.07.07a4.84,4.84,0,0,1,1.76.53,4.62,4.62,0,0,1,2,2,4.53,4.53,0,0,1,.48,1.69A4.58,4.58,0,0,1,466.9,233.31Z" style="fill:#263238"></path><polygon points="466.24 234.52 471.42 237.15 471.04 252.14 465.71 255.13 466.24 234.52" style="fill:#263238"></polygon><path d="M405.14,245.07,393.7,227.42h0l-1-1.58h0l-1.54-2.38,6.72-27.39s5.75,2.64,8.91,7a105.42,105.42,0,0,1,7,12.5s11.2,25.62,13,29.44,4.82,10.91,0,14.87-37,4.1-37,4.1l-2.17-16.19Z" style="fill:#455a64"></path><path d="M391,220.57c.09,0-.16-1.2-.27-3.14a24.89,24.89,0,0,1,3.68-14.4c1-1.65,1.8-2.57,1.74-2.62s-.24.19-.61.6a14.49,14.49,0,0,0-1.42,1.84,22.61,22.61,0,0,0-3.12,7,22.91,22.91,0,0,0-.61,7.63,15.82,15.82,0,0,0,.37,2.29A2.75,2.75,0,0,0,391,220.57Z" style="fill:#263238"></path><path d="M383.89,250.81A11.15,11.15,0,0,0,381,247c-2.11-1.83-6.74-3.25-7.34-5s-2.36-.4-1.95,1.79c.26,1.39,3.13,5,3.13,5s-3.36.85-5.61-.44-10.09-3.62-10.93-2.52,1.11,1.66,2,2.16c.67.38,5.89,3,5.89,3s-10.38-.35-11.69.14,0,1.8.69,1.82c.41,0,2.19,1.61,3.45,2.78a4.73,4.73,0,0,0,3.14,1.27l2.42,0-7.33.77s-1.27,1.16.49,1.76c.79.27,21.11,2.11,22.83,2,3.91-.13,9.36-.4,9.36-.4l-1-11Z" style="fill:#ffbe9d"></path><path d="M355,253.06a15.88,15.88,0,0,0,4.94,1.5,15.59,15.59,0,0,0,5.15.3c0-.14-2.29-.27-5.07-.77S355,252.93,355,253.06Z" style="fill:#eb996e"></path><g style="opacity:0.30000000000000004"><path d="M278.34,240.32c2-.44,3.93.83,5.57,2a26.27,26.27,0,0,1,2.95,2.41c2.53,2.53,3.86,6,6,8.88l-12-1.83Z"></path></g><path d="M296.66,254.14l-5.23-1.09s-4.7-7.5-7.17-8.41l-1.39-.61s-1.82-4-4.28-3.47c-1.47-1-2.78-.58-2.92.88,0,0-.73-3.33-3.46-2s3.77,12.9,3.77,12.9,2.28,5.91,5.11,3.94c0,0,2.82.66,4.72-.4,0,0,1.75,2.47,5.89.59Z" style="fill:#ffbe9d"></path><path d="M285.29,254.54a.94.94,0,0,0,0,.56,2.47,2.47,0,0,0,.72,1.34,3.47,3.47,0,0,0,2.06,1,7,7,0,0,0,2.72-.3,17.39,17.39,0,0,0,4.49-2,5.59,5.59,0,0,0,1.6-1.25,30.77,30.77,0,0,1-6.21,2.75,7.11,7.11,0,0,1-2.55.32,3.24,3.24,0,0,1-1.87-.77A3,3,0,0,1,285.29,254.54Z" style="fill:#eb996e"></path><path d="M280.29,251.89c.12-.08-1.45-2.34-2.8-5.43s-2-5.77-2.11-5.74a5.52,5.52,0,0,0,.27,1.79,25.86,25.86,0,0,0,1.4,4.14,24.26,24.26,0,0,0,2.1,3.83A5.47,5.47,0,0,0,280.29,251.89Z" style="fill:#eb996e"></path><path d="M283.28,251.64c.13-.07-1.2-2.43-2.49-5.48s-2.07-5.64-2.2-5.6a28.94,28.94,0,0,0,4.69,11.08Z" style="fill:#eb996e"></path><path d="M279.27,254.31c-.13,0,0,1,.83,1.67s1.81.66,1.79.53-.77-.29-1.48-.9S279.4,254.27,279.27,254.31Z" style="fill:#eb996e"></path><path d="M286.54,250a19.31,19.31,0,0,0-1.69-2.91,18.86,18.86,0,0,0-1.82-2.85,14.11,14.11,0,0,0,3.51,5.76Z" style="fill:#eb996e"></path></g></svg>